<svg width="211" height="60" viewBox="0 0 211 60" fill="none" xmlns="http://www.w3.org/2000/svg">
<rect width="211" height="60" rx="4" fill="#F6AF07"/>
<path d="M64.3906 39V23H70.7969C71.974 23 72.9557 23.1745 73.7422 23.5234C74.5286 23.8724 75.1198 24.3568 75.5156 24.9766C75.9115 25.5911 76.1094 26.2995 76.1094 27.1016C76.1094 27.7266 75.9844 28.276 75.7344 28.75C75.4844 29.2187 75.1406 29.6042 74.7031 29.9062C74.2708 30.2031 73.776 30.4141 73.2188 30.5391V30.6953C73.8281 30.7214 74.3984 30.8932 74.9297 31.2109C75.4661 31.5286 75.901 31.974 76.2344 32.5469C76.5677 33.1146 76.7344 33.7917 76.7344 34.5781C76.7344 35.4271 76.5234 36.1849 76.1016 36.8516C75.6849 37.513 75.0677 38.0365 74.25 38.4219C73.4323 38.8073 72.4245 39 71.2266 39H64.3906ZM67.7734 36.2344H70.5313C71.474 36.2344 72.1615 36.0547 72.5938 35.6953C73.026 35.3307 73.2422 34.8464 73.2422 34.2422C73.2422 33.7995 73.1354 33.4089 72.9219 33.0703C72.7083 32.7318 72.4036 32.4661 72.0078 32.2734C71.6172 32.0807 71.151 31.9844 70.6094 31.9844H67.7734V36.2344ZM67.7734 29.6953H70.2812C70.7448 29.6953 71.1563 29.6146 71.5156 29.4531C71.8802 29.2865 72.1667 29.0521 72.375 28.75C72.5885 28.4479 72.6953 28.0859 72.6953 27.6641C72.6953 27.0859 72.4896 26.6198 72.0781 26.2656C71.6719 25.9115 71.0938 25.7344 70.3438 25.7344H67.7734V29.6953ZM78.873 39V27H82.2012V39H78.873ZM80.5449 25.4531C80.0501 25.4531 79.6257 25.2891 79.2715 24.9609C78.9225 24.6276 78.748 24.2292 78.748 23.7656C78.748 23.3073 78.9225 22.9141 79.2715 22.5859C79.6257 22.2526 80.0501 22.0859 80.5449 22.0859C81.0397 22.0859 81.4616 22.2526 81.8105 22.5859C82.1647 22.9141 82.3418 23.3073 82.3418 23.7656C82.3418 24.2292 82.1647 24.6276 81.8105 24.9609C81.4616 25.2891 81.0397 25.4531 80.5449 25.4531ZM87.8828 35.5469L87.8906 31.5547H88.375L92.2188 27H96.0391L90.875 33.0313H90.0859L87.8828 35.5469ZM84.8672 39V23H88.1953V39H84.8672ZM92.3672 39L88.8359 33.7734L91.0547 31.4219L96.2656 39H92.3672ZM102.6 39.2344C101.37 39.2344 100.313 38.974 99.4277 38.4531C98.5475 37.9271 97.8704 37.1979 97.3965 36.2656C96.9277 35.3333 96.6934 34.2604 96.6934 33.0469C96.6934 31.8177 96.9303 30.7396 97.4043 29.8125C97.8835 28.8802 98.5632 28.1536 99.4434 27.6328C100.324 27.1068 101.37 26.8438 102.584 26.8438C103.631 26.8438 104.548 27.0339 105.334 27.4141C106.12 27.7943 106.743 28.3281 107.201 29.0156C107.66 29.7031 107.912 30.5104 107.959 31.4375H104.818C104.73 30.8385 104.495 30.3568 104.115 29.9922C103.74 29.6224 103.248 29.4375 102.639 29.4375C102.123 29.4375 101.673 29.5781 101.287 29.8594C100.907 30.1354 100.61 30.5391 100.396 31.0703C100.183 31.6016 100.076 32.2448 100.076 33C100.076 33.7656 100.18 34.4167 100.389 34.9531C100.602 35.4896 100.902 35.8984 101.287 36.1797C101.673 36.4609 102.123 36.6016 102.639 36.6016C103.019 36.6016 103.36 36.5234 103.662 36.3672C103.969 36.2109 104.222 35.9844 104.42 35.6875C104.623 35.3854 104.756 35.0234 104.818 34.6016H107.959C107.907 35.5182 107.657 36.3255 107.209 37.0234C106.766 37.7161 106.154 38.2578 105.373 38.6484C104.592 39.0391 103.667 39.2344 102.6 39.2344ZM110.09 39V27H113.316V29.0937H113.441C113.66 28.349 114.027 27.7865 114.543 27.4063C115.059 27.0208 115.652 26.8281 116.324 26.8281C116.491 26.8281 116.671 26.8385 116.863 26.8594C117.056 26.8802 117.225 26.9089 117.371 26.9453V29.8984C117.215 29.8516 116.999 29.8099 116.723 29.7734C116.447 29.737 116.194 29.7188 115.965 29.7188C115.475 29.7188 115.038 29.8255 114.652 30.0391C114.272 30.2474 113.97 30.5391 113.746 30.9141C113.527 31.2891 113.418 31.7214 113.418 32.2109V39H110.09ZM122.17 39.2266C121.404 39.2266 120.722 39.0938 120.123 38.8281C119.524 38.5573 119.05 38.1589 118.701 37.6328C118.357 37.1016 118.186 36.4401 118.186 35.6484C118.186 34.9818 118.308 34.4219 118.553 33.9687C118.798 33.5156 119.131 33.151 119.553 32.875C119.975 32.599 120.454 32.3906 120.99 32.25C121.532 32.1094 122.1 32.0104 122.693 31.9531C123.391 31.8802 123.954 31.8125 124.381 31.75C124.808 31.6823 125.118 31.5833 125.311 31.4531C125.503 31.3229 125.6 31.1302 125.6 30.875V30.8281C125.6 30.3333 125.443 29.9505 125.131 29.6797C124.824 29.4089 124.386 29.2734 123.818 29.2734C123.219 29.2734 122.743 29.4062 122.389 29.6719C122.035 29.9323 121.8 30.2604 121.686 30.6562L118.607 30.4062C118.764 29.6771 119.071 29.0469 119.529 28.5156C119.988 27.9792 120.579 27.5677 121.303 27.2812C122.032 26.9896 122.876 26.8438 123.834 26.8438C124.501 26.8438 125.139 26.9219 125.748 27.0781C126.363 27.2344 126.907 27.4766 127.381 27.8047C127.86 28.1328 128.238 28.5547 128.514 29.0703C128.79 29.5807 128.928 30.1927 128.928 30.9062V39H125.771V37.3359H125.678C125.485 37.7109 125.227 38.0417 124.904 38.3281C124.581 38.6094 124.193 38.8307 123.74 38.9922C123.287 39.1484 122.764 39.2266 122.17 39.2266ZM123.123 36.9297C123.613 36.9297 124.045 36.8333 124.42 36.6406C124.795 36.4427 125.089 36.1771 125.303 35.8438C125.516 35.5104 125.623 35.1328 125.623 34.7109V33.4375C125.519 33.5052 125.376 33.5677 125.193 33.625C125.016 33.6771 124.816 33.7266 124.592 33.7734C124.368 33.8151 124.144 33.8542 123.92 33.8906C123.696 33.9219 123.493 33.9505 123.311 33.9766C122.92 34.0339 122.579 34.125 122.287 34.25C121.995 34.375 121.769 34.5443 121.607 34.7578C121.446 34.9661 121.365 35.2266 121.365 35.5391C121.365 35.9922 121.529 36.3385 121.857 36.5781C122.191 36.8125 122.613 36.9297 123.123 36.9297ZM137.963 27V29.5H130.557V27H137.963ZM132.252 39V26.1328C132.252 25.263 132.421 24.5417 132.76 23.9687C133.104 23.3958 133.572 22.9661 134.166 22.6797C134.76 22.3932 135.434 22.25 136.189 22.25C136.7 22.25 137.166 22.2891 137.588 22.3672C138.015 22.4453 138.333 22.5156 138.541 22.5781L137.947 25.0781C137.817 25.0365 137.656 24.9974 137.463 24.9609C137.275 24.9245 137.083 24.9062 136.885 24.9062C136.395 24.9062 136.054 25.0208 135.861 25.25C135.669 25.474 135.572 25.7891 135.572 26.1953V39H132.252ZM146.379 27V29.5H139.152V27H146.379ZM140.793 24.125H144.121V35.3125C144.121 35.6198 144.168 35.8594 144.262 36.0312C144.355 36.1979 144.486 36.3151 144.652 36.3828C144.824 36.4505 145.022 36.4844 145.246 36.4844C145.402 36.4844 145.559 36.4714 145.715 36.4453C145.871 36.4141 145.991 36.3906 146.074 36.375L146.598 38.8516C146.431 38.9036 146.197 38.9635 145.895 39.0313C145.592 39.1042 145.225 39.1484 144.793 39.1641C143.991 39.1953 143.288 39.0885 142.684 38.8437C142.085 38.599 141.618 38.2187 141.285 37.7031C140.952 37.1875 140.788 36.5365 140.793 35.75V24.125Z" fill="#111111"/>
</svg>
